<svg width="20" height="20" viewBox="0 0 20 20" fill="none" xmlns="http://www.w3.org/2000/svg">
<g clip-path="url(#clip0_433_73)">
<path d="M5.4165 6.66699C6.10686 6.66699 6.6665 6.10735 6.6665 5.41699C6.6665 4.72663 6.10686 4.16699 5.4165 4.16699C4.72615 4.16699 4.1665 4.72663 4.1665 5.41699C4.1665 6.10735 4.72615 6.66699 5.4165 6.66699Z" fill="#545454"/>
<path d="M4.1665 8.33333C4.1665 7.8731 4.5396 7.5 4.99984 7.5H5.83317C6.2934 7.5 6.6665 7.87309 6.6665 8.33333V15C6.6665 15.4603 6.2934 15.8333 5.83317 15.8333H4.99984C4.5396 15.8333 4.1665 15.4603 4.1665 15V8.33333Z" fill="#545454"/>
<path d="M9.16683 15.8333H10.0002C10.4604 15.8333 10.8335 15.4603 10.8335 15V11.25C10.8335 10 13.3335 9.16667 13.3335 10.8333V15.0003C13.3335 15.4606 13.7066 15.8333 14.1668 15.8333H15.0002C15.4604 15.8333 15.8335 15.4603 15.8335 15V10C15.8335 8.33333 14.5835 7.5 12.9168 7.5C11.2502 7.5 10.8335 8.75 10.8335 8.75V8.33333C10.8335 7.87309 10.4604 7.5 10.0002 7.5H9.16683C8.70658 7.5 8.3335 7.8731 8.3335 8.33333V15C8.3335 15.4603 8.70658 15.8333 9.16683 15.8333Z" fill="#545454"/>
<path fill-rule="evenodd" clip-rule="evenodd" d="M17.2727 0C18.779 0 20 1.22105 20 2.72727V17.2727C20 18.779 18.779 20 17.2727 20H2.72727C1.22105 20 0 18.779 0 17.2727V2.72727C0 1.22105 1.22105 0 2.72727 0H17.2727ZM17.2727 1.81818C17.7748 1.81818 18.1818 2.2252 18.1818 2.72727V17.2727C18.1818 17.7748 17.7748 18.1818 17.2727 18.1818H2.72727C2.2252 18.1818 1.81818 17.7748 1.81818 17.2727V2.72727C1.81818 2.2252 2.2252 1.81818 2.72727 1.81818H17.2727Z" fill="#545454"/>
</g>
<defs>
<clipPath id="clip0_433_73">
<rect width="20" height="20" fill="white"/>
</clipPath>
</defs>
</svg>
