<svg width="32" height="32" viewBox="0 0 32 32" fill="none" xmlns="http://www.w3.org/2000/svg">
<g clip-path="url(#clip0_433_134)">
<path fill-rule="evenodd" clip-rule="evenodd" d="M10.0266 0.17889C11.6551 -0.55148 13.0659 1.09839 12.5565 2.53089C10.8278 7.3916 11.8899 12.9123 15.4781 16.502C19.0845 20.1102 24.6371 21.1706 29.5095 19.4095C30.9272 18.8971 32.531 20.2952 31.8301 21.8863C31.8093 21.9333 31.7884 21.9802 31.7673 22.0272C30.5198 24.7958 28.5242 27.3995 25.9425 29.1452C23.1907 31.0059 19.9455 32 16.6242 32H16.6226C12.7605 31.9958 9.01994 30.6476 6.04232 28.1865C3.06468 25.7255 1.03536 22.3047 0.302395 18.5106C-0.430567 14.7164 0.178512 10.7854 2.02517 7.39142C3.77581 4.17389 6.71959 1.67351 9.97867 0.200437L10.0266 0.17889Z" fill="#676767"/>
</g>
<defs>
<clipPath id="clip0_433_134">
<rect width="32" height="32" fill="white"/>
</clipPath>
</defs>
</svg>
