<svg width="21" height="21" viewBox="0 0 21 21" fill="none" xmlns="http://www.w3.org/2000/svg">
<path d="M9.67762 1.96254C9.93805 1.37824 10.0683 1.08609 10.2497 0.996124C10.4072 0.917959 10.5921 0.917959 10.7496 0.996124C10.931 1.08609 11.0613 1.37824 11.3217 1.96254L13.3962 6.61659C13.4733 6.78932 13.5117 6.87569 13.5714 6.94183C13.624 7.00035 13.6885 7.04716 13.7604 7.0792C13.8417 7.11543 13.9357 7.12535 14.1238 7.14519L19.1912 7.68003C19.8274 7.74717 20.1454 7.78074 20.287 7.9254C20.41 8.05105 20.4672 8.22701 20.4415 8.40098C20.412 8.60123 20.1744 8.81531 19.6992 9.2436L15.9139 12.6548C15.7735 12.7814 15.7032 12.8447 15.6588 12.9218C15.6194 12.9901 15.5948 13.0658 15.5866 13.1441C15.5772 13.2326 15.5968 13.3251 15.6361 13.5102L16.6933 18.4947C16.8261 19.1205 16.8925 19.4334 16.7986 19.6127C16.7171 19.7687 16.5675 19.8773 16.3941 19.9067C16.1945 19.9404 15.9174 19.7807 15.3633 19.4611L10.9493 16.9152C10.7855 16.8207 10.7036 16.7736 10.6165 16.755C10.5395 16.7387 10.4598 16.7387 10.3828 16.755C10.2957 16.7736 10.2138 16.8207 10.05 16.9152L5.63608 19.4611C5.08192 19.7807 4.80485 19.9404 4.60526 19.9067C4.43189 19.8773 4.28222 19.7687 4.20072 19.6127C4.10691 19.4334 4.17327 19.1205 4.30601 18.4947L5.36324 13.5102C5.40248 13.3251 5.4221 13.2326 5.41279 13.1441C5.40454 13.0658 5.37994 12.9901 5.34056 12.9218C5.29607 12.8447 5.22582 12.7814 5.08534 12.6548L1.30015 9.2436C0.824935 8.81531 0.587324 8.60123 0.557781 8.40098C0.532131 8.22701 0.589292 8.05105 0.7123 7.9254C0.853915 7.78074 1.17201 7.74717 1.8082 7.68003L6.87552 7.14519C7.0636 7.12535 7.15763 7.11543 7.23894 7.0792C7.31089 7.04716 7.3753 7.00035 7.42802 6.94183C7.48759 6.87569 7.52609 6.78932 7.60309 6.61659L9.67762 1.96254Z" fill="#6A6A6A" stroke="#6A6A6A" stroke-linecap="round" stroke-linejoin="round"/>
</svg>
