<svg width="34" height="34" viewBox="0 0 34 34" fill="none" xmlns="http://www.w3.org/2000/svg">
<g clip-path="url(#clip0_449_1094)">
<path fill-rule="evenodd" clip-rule="evenodd" d="M22.7578 17.0012C22.7578 20.1812 20.1798 22.7593 16.9998 22.7593C13.8198 22.7593 11.2417 20.1812 11.2417 17.0012C11.2417 13.8212 13.8198 11.2432 16.9998 11.2432C20.1798 11.2432 22.7578 13.8212 22.7578 17.0012Z" fill="#676767" stroke="#676767" stroke-width="1.5" stroke-linecap="round" stroke-linejoin="round"/>
<path d="M32.3548 18.6452C33.2634 18.6452 34 17.9086 34 17C34 16.0914 33.2634 15.3548 32.3548 15.3548V18.6452ZM28.5161 15.3548C27.6076 15.3548 26.871 16.0914 26.871 17C26.871 17.9086 27.6076 18.6452 28.5161 18.6452V15.3548ZM5.48387 18.6452C6.39246 18.6452 7.12903 17.9086 7.12903 17C7.12903 16.0914 6.39246 15.3548 5.48387 15.3548V18.6452ZM1.64516 15.3548C0.736572 15.3548 0 16.0914 0 17C0 17.9086 0.736572 18.6452 1.64516 18.6452V15.3548ZM18.6452 1.64516C18.6452 0.736572 17.9086 0 17 0C16.0914 0 15.3548 0.736572 15.3548 1.64516H18.6452ZM15.3548 5.48387C15.3548 6.39246 16.0914 7.12903 17 7.12903C17.9086 7.12903 18.6452 6.39246 18.6452 5.48387H15.3548ZM18.6452 28.5161C18.6452 27.6076 17.9086 26.871 17 26.871C16.0914 26.871 15.3548 27.6076 15.3548 28.5161H18.6452ZM15.3548 32.3548C15.3548 33.2634 16.0914 34 17 34C17.9086 34 18.6452 33.2634 18.6452 32.3548H15.3548ZM29.0213 7.30524C29.6638 6.66277 29.6638 5.6211 29.0213 4.97863C28.3788 4.33616 27.3373 4.33616 26.6948 4.97863L29.0213 7.30524ZM23.9792 7.69424C23.3367 8.33671 23.3367 9.37838 23.9792 10.0209C24.6217 10.6633 25.6632 10.6633 26.3057 10.0209L23.9792 7.69424ZM10.0209 26.3057C10.6633 25.6632 10.6633 24.6217 10.0209 23.9792C9.37838 23.3367 8.33671 23.3367 7.69424 23.9792L10.0209 26.3057ZM4.97863 26.6948C4.33616 27.3373 4.33616 28.3788 4.97863 29.0213C5.6211 29.6638 6.66277 29.6638 7.30524 29.0213L4.97863 26.6948ZM7.30524 4.97863C6.66277 4.33616 5.6211 4.33616 4.97863 4.97863C4.33616 5.6211 4.33616 6.66277 4.97863 7.30524L7.30524 4.97863ZM7.69424 10.0209C8.33671 10.6633 9.37838 10.6633 10.0209 10.0209C10.6633 9.37838 10.6633 8.33671 10.0209 7.69424L7.69424 10.0209ZM26.3079 23.9814C25.6654 23.3389 24.6239 23.3389 23.9814 23.9814C23.3389 24.6239 23.3389 25.6654 23.9814 26.3079L26.3079 23.9814ZM26.6948 29.0213C27.3373 29.6638 28.3788 29.6638 29.0213 29.0213C29.6638 28.3788 29.6638 27.3373 29.0213 26.6948L26.6948 29.0213ZM32.3548 15.3548H28.5161V18.6452H32.3548V15.3548ZM5.48387 15.3548H1.64516V18.6452H5.48387V15.3548ZM15.3548 1.64516V5.48387H18.6452V1.64516H15.3548ZM15.3548 28.5161V32.3548H18.6452V28.5161H15.3548ZM26.6948 4.97863L23.9792 7.69424L26.3057 10.0209L29.0213 7.30524L26.6948 4.97863ZM7.69424 23.9792L4.97863 26.6948L7.30524 29.0213L10.0209 26.3057L7.69424 23.9792ZM4.97863 7.30524L7.69424 10.0209L10.0209 7.69424L7.30524 4.97863L4.97863 7.30524ZM23.9814 26.3079L26.6948 29.0213L29.0213 26.6948L26.3079 23.9814L23.9814 26.3079Z" fill="#676767"/>
</g>
<defs>
<clipPath id="clip0_449_1094">
<rect width="34" height="34" fill="white"/>
</clipPath>
</defs>
</svg>
