<svg width="343" height="476" viewBox="0 0 343 476" fill="none" xmlns="http://www.w3.org/2000/svg">
<path d="M170.572 101.5C177.172 94.3 173.5 82.7393 165.5 82.7623L83.0578 83V159H1V15C1 6.71573 7.21573 0 15.5 0H170.5C222 0 256.5 51 256.5 82.5C256.5 124.252 246.5 136 240 145.5L234 153.5L75.0578 312.5C65.5579 322.167 36.7576 340.201 13.5576 317.001C-9.64244 293.801 1.55783 270.335 13.0589 258.835L170.572 101.5Z" fill="#F8F8F8"/>
<path d="M171.928 373.84C165.328 381.04 169 392.601 177 392.578L259.442 392.34V316.34H341.5V460.34C341.5 468.624 335.284 475.34 327 475.34H172C120.5 475.34 86 424.34 86 392.84C86 351.088 96 339.34 102.5 329.84L108.5 321.84L267.442 162.84C276.942 153.173 305.742 135.139 328.942 158.339C352.142 181.539 340.942 205.005 329.441 216.505L171.928 373.84Z" fill="#F8F8F8"/>
</svg>
